<?xml version="1.0"?>
<svg xmlns="http://www.w3.org/2000/svg" height="512px" viewBox="0 -77 512 512" width="512px" class=""><g><path d="m420.0625 0h-328.125c-28.195312 0-51.132812 22.9375-51.132812 51.132812 0 4.164063 3.375 7.539063 7.539062 7.539063h415.3125c4.164062 0 7.539062-3.375 7.539062-7.539063 0-28.195312-22.9375-51.132812-51.132812-51.132812zm0 0" fill="#3e5359" data-original="#3E5359" class="" style="fill:#FF6D00" data-old_color="#FF7500"/><path d="m420.0625 0h-44.609375c28.195313 0 51.132813 22.9375 51.132813 51.132812 0 4.164063-3.371094 7.539063-7.539063 7.539063h44.609375c4.164062 0 7.539062-3.375 7.539062-7.539063 0-28.195312-22.9375-51.132812-51.132812-51.132812zm0 0" fill="#334549" data-original="#334549" class="" style="fill:#FF6D00" data-old_color="#334549"/><path d="m318.882812 308.152344-25.648437-49.050782c-7.269531-13.914062-21.539063-22.554687-37.234375-22.554687s-29.964844 8.640625-37.238281 22.554687l-25.644531 49.050782c-1.222657 2.335937-1.136719 5.140625.230468 7.398437 1.367188 2.253907 3.8125 3.632813 6.449219 3.632813h112.402344c2.636719 0 5.085937-1.378906 6.449219-3.632813 1.367187-2.257812 1.457031-5.0625.234374-7.398437zm0 0" fill="#3e5359" data-original="#3E5359" class="" style="fill:#FF6D00" data-old_color="#FF7500"/><path d="m286.554688 262.59375c-9.820313-18.789062-32.628907-23.253906-48.648438-13.433594 5.019531 3.078125 9.382812 7.542969 12.460938 13.433594l25.644531 49.050781h36.191406zm0 0" fill="#334549" data-original="#334549" class="" style="fill:#FF6D00" data-old_color="#334549"/><path d="m469.984375 43.59375h-427.96875c-23.167969 0-42.015625 18.847656-42.015625 42.015625v230.09375c0 23.167969 18.847656 42.015625 42.015625 42.015625h116.765625c15.695312 0 29.960938-8.644531 37.234375-22.550781l36.113281-69.085938c4.734375-9.054687 13.65625-14.457031 23.871094-14.457031s19.136719 5.402344 23.871094 14.457031l36.117187 69.085938c7.269531 13.90625 21.539063 22.550781 37.230469 22.550781h116.765625c23.167969 0 42.015625-18.847656 42.015625-42.015625v-230.09375c0-23.167969-18.847656-42.015625-42.015625-42.015625zm0 0" fill="#ffdb56" data-original="#FFDB56" class="" style="fill:#FFDB56" data-old_color="#FF8400"/><path d="m469.984375 43.59375h-44.46875c23.167969 0 42.015625 18.847656 42.015625 42.015625v230.09375c0 23.167969-18.847656 42.015625-42.015625 42.015625h44.46875c23.167969 0 42.015625-18.847656 42.015625-42.015625v-230.09375c0-23.167969-18.847656-42.015625-42.015625-42.015625zm0 0" fill="#ffc41f" data-original="#FFC41F" class="" style="fill:#FFC41F" data-old_color="#E4EEFB"/><path d="m187.660156 266.082031-36.117187 69.085938c-7.269531 13.90625-21.539063 22.550781-37.234375 22.550781h44.472656c15.695312 0 29.960938-8.644531 37.234375-22.550781l36.113281-69.085938c4.734375-9.054687 13.65625-14.457031 23.871094-14.457031h-44.472656c-10.210938 0-19.136719 5.402344-23.867188 14.457031zm0 0" fill="#ffc41f" data-original="#FFC41F" class="" style="fill:#FFC41F" data-old_color="#E4EEFB"/><path d="m126.171875 126.261719c-32.945313 0-59.746094 26.800781-59.746094 59.746093 0 32.945313 26.800781 59.75 59.746094 59.75s59.746094-26.804687 59.746094-59.75c0-32.945312-26.800781-59.746093-59.746094-59.746093zm0 0" fill="#3e5359" data-original="#3E5359" class="" style="fill:#FF6D00" data-old_color="#FF7500"/><path d="m385.828125 126.261719c-32.945313 0-59.746094 26.800781-59.746094 59.746093 0 32.945313 26.800781 59.75 59.746094 59.75s59.746094-26.804687 59.746094-59.75c0-32.945312-26.800781-59.746093-59.746094-59.746093zm0 0" fill="#3e5359" data-original="#3E5359" class="" style="fill:#FF6D00" data-old_color="#FF7500"/><g fill="#334549"><path d="m126.171875 126.261719c-6.152344 0-12.085937.933593-17.675781 2.667969 24.34375 7.554687 42.074218 30.285156 42.074218 57.078124 0 26.792969-17.730468 49.523438-42.074218 57.078126 5.589844 1.734374 11.523437 2.667968 17.675781 2.667968 32.945313 0 59.746094-26.800781 59.746094-59.746094 0-32.945312-26.800781-59.746093-59.746094-59.746093zm0 0" data-original="#000000" class="active-path" style="fill:#FF6D00" data-old_color="#000000"/><path d="m385.828125 126.261719c-6.152344 0-12.085937.933593-17.675781 2.667969 24.34375 7.554687 42.070312 30.285156 42.070312 57.078124 0 26.792969-17.726562 49.523438-42.070312 57.078126 5.589844 1.734374 11.523437 2.667968 17.675781 2.667968 32.945313 0 59.746094-26.800781 59.746094-59.746094 0-32.945312-26.800781-59.746093-59.746094-59.746093zm0 0" data-original="#000000" class="active-path" style="fill:#FF6D00" data-old_color="#000000"/></g></g> </svg>
